<svg xmlns="http://www.w3.org/2000/svg" viewBox="0 0 100 100">
<rect width="100" height="100" rx="24" fill="#15100a"/>
<rect x="3" y="3" width="94" height="94" rx="22" fill="none" stroke="#b98c39" stroke-width="2" opacity="0.6"/>
<svg x="24" y="13" width="52" height="74" viewBox="822.80 273.86 277.03 388.39"><path transform="matrix(1,0,0,-1,1033.657,418.74708)" d="M0 0C1.201 1.134-.022 4.557-.046 6.034-.064 7.209 .557 8.403 .476 9.471 .398 10.495-.183 13.814-1.399 14.179-2.278 11.052-2.428 7.162-2.112 3.906-2.052 3.285-1.524-1.439 0 0M-136.891 29.08C-139.986 26.578-139.642 21.987-140.446 18.445L-141.102 24.425-139.026 29.789-142.924 26.246C-143.793 28.637-139.394 30.169-137.981 31.943-134.559 36.237-133.401 48.391-133.351 53.903L-136.895 45.759C-137.873 44.602-137.632 46.519-137.534 47.091-136.083 55.61-133.119 64.056-129.791 71.988-130.779 72.474-132.027 70.385-132.514 69.745-134.268 67.439-136.155 64.551-136.9 61.715-138.33 61.693-137.481 64.561-137.288 65.299-134.645 75.355-126.924 84.226-119.867 91.494-130.223 90.707-134.712 83.29-139.84 75.653-140.329 74.924-141.263 73.438-141.134 75.525-135.677 93.495-123.917 108.929-108.521 119.523-112.001 120.624-115.668 115.917-118.105 114.918-118.43 114.784-119.267 114.732-119.154 115.261-112.171 122.118-103.019 127.631-92.908 127.675-92.747 130.79-93.798 134.534-91.139 136.885-90.313 135.965-83.939 129.495-82.985 130.518-82.925 132.682-84.912 135.183-82.628 136.885-82.249 136.882-78.837 133.578-77.799 133.151-76.357 132.557-75.369 133.486-73.53 132.569-66.628 129.128-57.614 120.817-50.864 116.171-46.051 112.859-37.905 109.099-34.065 106.016-28.076 101.209-27.647 90.256-36.287 87.725-43.529 85.603-45.387 90.35-51.049 91.869-51.868 92.089-56.545 92.92-57.091 92.92H-70.923C-68.465 80.56-63.466 69.158-53.907 60.637-45.95 53.543-36.231 54.13-32.067 42.755-31.111 40.144-31.303 33.623-27.852 35.294-23.158 37.567-13.559 47.299-9.385 48.098-7.511 48.457 .516 45.263 1.82 44.012 3.701 42.208 4.275 31.91 5.18 28.22 7.363 19.323 14.368 10.008 10.561 1.151 9.524-1.261-.891-21.011-1.792-21.963-3.291-23.546-5.288-23.02-6.764-24.084-8.688-25.471-13.399-35.471-16.586-34.706-22.999-27.105-26.01-13.63-12.05-13.471L-14.814-11.995C-15.298-8.266-11.255-6.116-10.675-2.44-10.122 1.063-10.903 15.739-16.534 14.75-21.405 10.792-29.211 7.593-32.045 1.906-34.67-3.363-36.52-10.244-39.103-15.862-48.423-36.137-58.015-48.339-72.706-64.542-74.571-66.599-80.219-72.617-81.007-74.68-82.925-79.702-77.867-87.707-77.313-93.287-75.945-107.074-86.086-128.672-93.327-140.391-97.694-147.458-105.059-154.511-106.206-162.978-108.585-180.535-101.967-194.192-93.478-208.758-91.739-211.743-85.344-222.736-82.99-223.802-79.966-225.172-78.668-223.95-76.281-224.131-54.271-225.799-25.232-225.597-3.191-223.434 20.078-221.149 37.891-196.936 46.949-177.104 47.981-174.845 50.598-166.263 51.425-165.265 52.589-163.862 56.354-164.818 58.173-164.573L47.539-235.506C38.214-234.933 28.82-235.156 19.488-234.821-30.666-233.02-80.594-233.455-130.832-234.821-139.929-235.068-149.08-234.578-158.173-234.791-158.18-233.418-158.07-229.872-156.996-229.06-155.746-228.115-147.07-226.283-144.828-225.791-139.087-224.532-120.156-223.027-117.393-219.177-114.724-215.457-116.672-212.888-116.347-209.649-115.633-202.549-114.176-199.91-115.938-192.204-118.104-182.731-122.839-174.828-125.287-163.958-125.801-161.674-127.503-159.038-127.644-157.035-127.945-152.763-122.881-143.649-122.178-138.494-120.282-124.579-135.505-110.38-141.268-98.367L-146.822-87.25V-97.536C-146.822-101.67-142.45-113.774-141.476-119.145-139.079-132.364-138.412-146.312-142.538-159.275L-146.105-165.983C-145.872-158.172-143.267-148.229-148.942-141.869-144.857-168.03-153.548-201.627-184.413-203.939-178.414-199.873-169.681-196.574-167.528-188.901-167.283-188.028-166.971-186.876-168.439-187.279-170.377-187.812-174.07-190.793-176.627-191.864-183.65-194.804-197.604-195.557-195.773-205.709-199.163-203.263-199.184-198.356-197.93-194.679-195.292-186.942-182.093-176.109-177.648-167.435-175.221-162.701-173.13-156.386-174.131-151.083-176.451-163.023-182.11-174.159-191.984-181.472-194.963-183.678-198.932-186.583-202.855-186.206-192.424-179.068-186.068-170.054-185.098-157.147-184.119-144.118-186.651-132.302-184.224-119.008-182.821-111.324-179.561-104.342-175.898-97.542L-182.281-101.799C-184.19-104.359-186.143-106.625-186.553-109.944-187.674-110.142-187.319-108.966-187.202-108.238-185.944-100.406-180.027-95.272-173.072-92.207-173.146-90.626-176.233-91.92-177.004-92.181L-187.25-97.539C-184.907-94.72-181.56-93.376-178.566-91.515-168.526-85.274-165.864-83.213-157.087-75.212-154.617-72.961-148.91-70.551-147.547-69.147-146.227-67.789-145.179-62.081-144.121-59.805-134.801-39.76-104.845-23.189-103.528-1.033-103.459 .124-103.474 3.232-104.964 3.541-106.215-11.239-118.604-28.037-134.763-26.95-132.235-24.834-128.973-23.696-126.31-21.578-122.402-18.469-119.978-14.685-117.744-10.283-117.321-8.978-126.841-14.196-127.682-14.532-135.18-17.53-147.221-17.884-146.464-28.372-152.52-20.537-146.658-13.724-141.837-7.47-133.97 2.732-122.74 11.674-124.13 26.239L-127.328 15.615C-130.894 7.774-136.51-.04-143.761-4.836-146.108-6.388-149.625-9.117-152.493-8.163-149.279-5.336-145.213-2.288-142.583 1.078-141.387 2.608-136.891 10.319-136.891 11.701Z" fill="#ecdfb0"/></svg>
</svg>